<svg viewBox="0 0 200 60" xmlns="http://www.w3.org/2000/svg">
  <defs>
    <linearGradient id="shieldGrad" x1="0%" y1="0%" x2="100%" y2="100%">
      <stop offset="0%" style="stop-color:#3b82f6"/>
      <stop offset="100%" style="stop-color:#0ea5e9"/>
    </linearGradient>
  </defs>

  <!-- Shield with cloud icon - two tone -->
  <g transform="translate(8, 5)">
    <!-- Shield left half -->
    <path d="M 22 5 L 6 12 L 6 28 Q 22 45 22 45 L 22 5 Z" fill="#3b82f6"/>
    <!-- Shield right half -->
    <path d="M 22 5 L 38 12 L 38 28 Q 22 45 22 45 L 22 5 Z" fill="#0ea5e9"/>

    <!-- Cloud inside -->
    <path d="M 14 22 Q 11 22 11 25 Q 11 28 14 28.5 L 30 28.5 Q 33 28 33 25 Q 33 22 30 22 Q 29 19 26 19 Q 22 18 19 21 Q 16 21.5 14 22 Z" fill="white" opacity="0.95"/>

    <!-- Checkmark -->
    <path d="M 18 24 L 21 27 L 28 20" stroke="#3b82f6" stroke-width="2.5" fill="none" stroke-linecap="round" stroke-linejoin="round"/>
  </g>

  <!-- Two-tone text -->
  <text x="55" y="38" font-family="Inter, Arial, sans-serif" font-size="24" font-weight="700">
    <tspan fill="#3b82f6">Gadget</tspan><tspan fill="#0ea5e9">Cloud</tspan>
  </text>
</svg>
