<svg viewBox="0 0 200 60" xmlns="http://www.w3.org/2000/svg">
  <!-- Minimal cloud + upload icon - two tone -->
  <g transform="translate(5, 8)">
    <!-- Cloud left half -->
    <path d="M 15 20 Q 8 20 8 27 Q 8 34 15 35 L 25 35 L 25 20 Q 20 12 17 18 Q 15 19 15 20 Z" fill="none" stroke="#3b82f6" stroke-width="3" stroke-linecap="round"/>
    <!-- Cloud right half -->
    <path d="M 25 20 L 25 35 L 35 35 Q 42 34 42 27 Q 42 20 35 20 Q 33 14 27 14 Q 25 13 25 20 Z" fill="none" stroke="#0ea5e9" stroke-width="3" stroke-linecap="round"/>

    <!-- Upload arrow - two tone -->
    <path d="M 25 42 L 25 35" stroke="#3b82f6" stroke-width="3" stroke-linecap="round"/>
    <path d="M 25 35 L 25 28" stroke="#0ea5e9" stroke-width="3" stroke-linecap="round"/>
    <path d="M 20 33 L 25 28" stroke="#3b82f6" stroke-width="3" stroke-linecap="round" stroke-linejoin="round" fill="none"/>
    <path d="M 25 28 L 30 33" stroke="#0ea5e9" stroke-width="3" stroke-linecap="round" stroke-linejoin="round" fill="none"/>
  </g>

  <!-- Two-tone text -->
  <text x="55" y="38" font-family="Inter, Arial, sans-serif" font-size="24" font-weight="700">
    <tspan fill="#3b82f6">Gadget</tspan><tspan fill="#0ea5e9">Cloud</tspan>
  </text>
</svg>
